<svg xmlns="http://www.w3.org/2000/svg" viewBox="0 0 48 48"><defs><style>.cls-1{fill:#fff;}.cls-2{fill:#1f1f1f;fill-rule:evenodd;}</style></defs><g id="Layer_2" data-name="Layer 2"><g id="Layer_1-2" data-name="Layer 1"><path class="cls-1" d="M24,0h0A24,24,0,0,1,48,24h0A24,24,0,0,1,24,48h0A24,24,0,0,1,0,24H0A24,24,0,0,1,24,0Z"/><path class="cls-2" d="M24,12.5c-3.26,0-3.67,0-4.95.07-4.36.2-6.78,2.62-7,7C12,20.83,12,21.24,12,24.5s0,3.67.07,4.95c.2,4.36,2.62,6.78,7,7,1.28.06,1.69.07,4.95.07s3.67,0,4.95-.07c4.35-.2,6.78-2.62,7-7,.06-1.28.07-1.69.07-4.95s0-3.67-.07-4.95c-.2-4.35-2.62-6.78-7-7C27.67,12.51,27.26,12.5,24,12.5Zm0,2.16c3.2,0,3.58,0,4.85.07,3.25.15,4.77,1.69,4.92,4.92.06,1.27.07,1.65.07,4.85s0,3.59-.07,4.85c-.15,3.23-1.67,4.77-4.92,4.92-1.27.06-1.64.07-4.85.07s-3.58,0-4.85-.07c-3.26-.15-4.77-1.7-4.92-4.92-.06-1.27-.07-1.65-.07-4.85s0-3.58.07-4.85c.15-3.23,1.67-4.77,4.92-4.92C20.42,14.67,20.8,14.66,24,14.66ZM17.84,24.5A6.16,6.16,0,1,1,24,30.66,6.16,6.16,0,0,1,17.84,24.5Zm6.16,4a4,4,0,1,1,4-4A4,4,0,0,1,24,28.5Zm5-10.41a1.44,1.44,0,1,1,1.44,1.44A1.43,1.43,0,0,1,29,18.09Z"/></g></g></svg>