<svg xmlns="http://www.w3.org/2000/svg" viewBox="0 0 48 48"><defs><style>.cls-1{fill:#fff;}.cls-2{fill:#1f1f1f;fill-rule:evenodd;}</style></defs><g id="Layer_2" data-name="Layer 2"><g id="Layer_1-2" data-name="Layer 1"><path class="cls-1" d="M24,0h0A24,24,0,0,1,48,24h0A24,24,0,0,1,24,48h0A24,24,0,0,1,0,24H0A24,24,0,0,1,24,0Z"/><path class="cls-2" d="M36,17.06a9.87,9.87,0,0,1-2.83.77,4.94,4.94,0,0,0,2.17-2.72,10,10,0,0,1-3.13,1.19,4.93,4.93,0,0,0-8.39,4.49,14,14,0,0,1-10.15-5.14,4.93,4.93,0,0,0,1.52,6.57A4.86,4.86,0,0,1,13,21.61a4.94,4.94,0,0,0,3.95,4.89,5,5,0,0,1-2.22.08A4.92,4.92,0,0,0,19.29,30,9.91,9.91,0,0,1,12,32,14,14,0,0,0,33.54,19.61,10.28,10.28,0,0,0,36,17.06Z"/></g></g></svg>